<?xml version="1.0" encoding="UTF-8" standalone="no"?>
<!DOCTYPE svg PUBLIC "-//W3C//DTD SVG 1.1//EN" "http://www.w3.org/Graphics/SVG/1.1/DTD/svg11.dtd">
<svg width="100%" height="100%" viewBox="0 0 2001 2001" version="1.1" xmlns="http://www.w3.org/2000/svg" xmlns:xlink="http://www.w3.org/1999/xlink" xml:space="preserve" xmlns:serif="http://www.serif.com/" style="fill-rule:evenodd;clip-rule:evenodd;stroke-linecap:round;stroke-linejoin:round;stroke-miterlimit:1.5;">
    <g transform="matrix(1,0,0,1,-13079,-122)">
        <g id="feedback-icon" transform="matrix(1,0,0,1,13079.1,122.881)">
            <rect x="0" y="0" width="2000" height="2000" style="fill:none;"/>
            <g transform="matrix(1.19344,0,0,1.44402,-67.6356,-369.576)">
                <path d="M1240.67,1312.83C1133.39,1349.42 1012.44,1370 884.5,1370C443.796,1370 86,1125.79 86,825C86,524.206 443.796,280 884.5,280C1325.2,280 1683,524.206 1683,825C1683,947.273 1623.88,1060.19 1524.09,1151.17C1620.9,1344.57 1709.27,1616.9 1709.27,1616.9C1709.27,1616.9 1409.67,1453.22 1240.67,1312.83Z" style="fill:rgb(207,216,229);stroke:rgb(23,45,77);stroke-width:31.45px;"/>
            </g>
        </g>
    </g>
</svg>
