<?xml version="1.0" encoding="UTF-8" standalone="no"?>
<!DOCTYPE svg PUBLIC "-//W3C//DTD SVG 1.1//EN" "http://www.w3.org/Graphics/SVG/1.1/DTD/svg11.dtd">
<svg width="100%" height="100%" viewBox="0 0 2001 2000" version="1.1" xmlns="http://www.w3.org/2000/svg" xmlns:xlink="http://www.w3.org/1999/xlink" xml:space="preserve" xmlns:serif="http://www.serif.com/" style="fill-rule:evenodd;clip-rule:evenodd;stroke-linecap:round;stroke-linejoin:round;stroke-miterlimit:1.5;">
    <g transform="matrix(1,0,0,1,-23542,0)">
        <g id="rubicscube-loesung-icon" transform="matrix(1,0,0,1,23542.4,0)">
            <rect x="0" y="0" width="2000" height="2000" style="fill:none;"/>
            <g id="RubicsCube">
                <g id="Gelb_Background" transform="matrix(1.04713,0,0,1.04713,-47.2492,-47.1332)">
                    <g id="squares_links" transform="matrix(2.41553,0,0,2.41553,-1407.42,-1318.91)">
                        <g transform="matrix(0.866025,0.5,-5.55112e-17,1.1547,0,0)">
                            <rect x="768" y="332.554" width="128" height="110.851" style="fill:rgb(229,189,115);stroke:rgb(229,189,115);stroke-width:12.47px;"/>
                        </g>
                        <g transform="matrix(0.866025,0.5,-5.55112e-17,1.1547,0,0)">
                            <rect x="896" y="332.554" width="128" height="110.851" style="fill:rgb(229,189,115);stroke:rgb(229,189,115);stroke-width:12.47px;"/>
                        </g>
                        <g transform="matrix(0.848132,0.489669,-5.55112e-17,1.1547,18.3233,10.579)">
                            <rect x="1024" y="332.554" width="130.701" height="110.851" style="fill:rgb(229,189,115);stroke:rgb(229,189,115);stroke-width:12.59px;"/>
                        </g>
                        <g transform="matrix(0.848132,0.489669,-5.55112e-17,1.1547,18.3233,10.579)">
                            <rect x="1024" y="443.405" width="130.701" height="110.851" style="fill:rgb(229,189,115);stroke:rgb(229,189,115);stroke-width:12.59px;"/>
                        </g>
                        <g transform="matrix(0.866025,0.5,-5.55112e-17,1.1547,0,0)">
                            <rect x="896" y="443.405" width="128" height="110.851" style="fill:rgb(229,189,115);stroke:rgb(229,189,115);stroke-width:12.47px;"/>
                        </g>
                        <g transform="matrix(0.866025,0.5,-5.55112e-17,1.1547,0,0)">
                            <rect x="768" y="443.405" width="128" height="110.851" style="fill:rgb(229,189,115);stroke:rgb(229,189,115);stroke-width:12.47px;"/>
                        </g>
                        <g transform="matrix(0.866025,0.5,-5.55112e-17,1.1547,0,0)">
                            <rect x="768" y="554.256" width="128" height="110.851" style="fill:rgb(229,189,115);stroke:rgb(229,189,115);stroke-width:12.47px;"/>
                        </g>
                        <g transform="matrix(0.866025,0.5,-5.55112e-17,1.1547,0,0)">
                            <rect x="896" y="554.256" width="128" height="110.851" style="fill:rgb(229,189,115);stroke:rgb(229,189,115);stroke-width:12.47px;"/>
                        </g>
                        <g transform="matrix(0.866025,0.5,-5.55112e-17,1.1547,1.56006e-12,-1.06038e-13)">
                            <rect x="1024" y="554.256" width="128" height="110.851" style="fill:rgb(229,189,115);stroke:rgb(229,189,115);stroke-width:12.47px;"/>
                        </g>
                    </g>
                    <g id="squares_rechts" transform="matrix(2.41553,0,0,2.41553,-1407.42,-1318.91)">
                        <g transform="matrix(0.866025,-0.5,5.55112e-17,1.1547,332.554,960)">
                            <rect x="768" y="332.554" width="128" height="110.851" style="fill:rgb(229,189,115);stroke:rgb(229,189,115);stroke-width:21.46px;"/>
                        </g>
                        <g transform="matrix(0.866025,-0.5,5.55112e-17,1.1547,332.554,960)">
                            <rect x="896" y="332.554" width="128" height="110.851" style="fill:rgb(229,189,115);stroke:rgb(229,189,115);stroke-width:21.46px;"/>
                        </g>
                        <g transform="matrix(0.848132,-0.489669,5.55112e-17,1.1547,350.877,949.421)">
                            <rect x="1024" y="332.554" width="130.701" height="110.851" style="fill:rgb(229,189,115);stroke:rgb(229,189,115);stroke-width:21.62px;"/>
                        </g>
                        <g transform="matrix(0.848132,-0.489669,5.55112e-17,1.1547,350.877,949.421)">
                            <rect x="1024" y="443.405" width="130.701" height="110.851" style="fill:rgb(229,189,115);stroke:rgb(229,189,115);stroke-width:21.62px;"/>
                        </g>
                        <g transform="matrix(0.866025,-0.5,5.55112e-17,1.1547,332.554,960)">
                            <rect x="896" y="443.405" width="128" height="110.851" style="fill:rgb(229,189,115);stroke:rgb(229,189,115);stroke-width:21.46px;"/>
                        </g>
                        <g transform="matrix(0.866025,-0.5,5.55112e-17,1.1547,332.554,960)">
                            <rect x="768" y="443.405" width="128" height="110.851" style="fill:rgb(229,189,115);stroke:rgb(229,189,115);stroke-width:21.46px;"/>
                        </g>
                        <g transform="matrix(0.866025,-0.5,5.55112e-17,1.1547,332.554,960)">
                            <rect x="768" y="554.256" width="128" height="110.851" style="fill:rgb(229,189,115);stroke:rgb(229,189,115);stroke-width:21.46px;"/>
                        </g>
                        <g transform="matrix(0.866025,-0.5,5.55112e-17,1.1547,332.554,960)">
                            <rect x="896" y="554.256" width="128" height="110.851" style="fill:rgb(229,189,115);stroke:rgb(229,189,115);stroke-width:21.46px;"/>
                        </g>
                        <g transform="matrix(0.866025,-0.5,5.55112e-17,1.1547,332.554,960)">
                            <rect x="1024" y="554.256" width="128" height="110.851" style="fill:rgb(229,189,115);stroke:rgb(229,189,115);stroke-width:21.46px;"/>
                        </g>
                    </g>
                    <g id="squares_top" transform="matrix(2.41553,0,0,2.41553,-1407.42,-1318.91)">
                        <g transform="matrix(0.866025,-0.5,1,0.57735,-332.554,960)">
                            <rect x="768" y="332.554" width="128" height="110.851" style="fill:rgb(229,189,115);stroke:rgb(229,189,115);stroke-width:12.47px;"/>
                        </g>
                        <g transform="matrix(0.866025,-0.5,1,0.57735,-332.554,960)">
                            <rect x="896" y="332.554" width="128" height="110.851" style="fill:rgb(229,189,115);stroke:rgb(229,189,115);stroke-width:12.47px;"/>
                        </g>
                        <g transform="matrix(0.848132,-0.489669,1,0.57735,-314.23,949.421)">
                            <rect x="1024" y="332.554" width="130.701" height="110.851" style="fill:rgb(229,189,115);stroke:rgb(229,189,115);stroke-width:12.59px;"/>
                        </g>
                        <g transform="matrix(0.848132,-0.489669,1,0.57735,-314.23,949.421)">
                            <rect x="1024" y="443.405" width="130.701" height="110.851" style="fill:rgb(229,189,115);stroke:rgb(229,189,115);stroke-width:12.59px;"/>
                        </g>
                        <g transform="matrix(0.866025,-0.5,1,0.57735,-332.554,960)">
                            <rect x="896" y="443.405" width="128" height="110.851" style="fill:rgb(229,189,115);stroke:rgb(229,189,115);stroke-width:12.47px;"/>
                        </g>
                        <g transform="matrix(0.866025,-0.5,1,0.57735,-332.554,960)">
                            <rect x="768" y="443.405" width="128" height="110.851" style="fill:rgb(229,189,115);stroke:rgb(229,189,115);stroke-width:12.47px;"/>
                        </g>
                        <g transform="matrix(0.866025,-0.5,1,0.57735,-332.554,960)">
                            <rect x="768" y="554.256" width="128" height="110.851" style="fill:rgb(229,189,115);stroke:rgb(229,189,115);stroke-width:12.47px;"/>
                        </g>
                        <g transform="matrix(0.866025,-0.5,1,0.57735,-332.554,960)">
                            <rect x="896" y="554.256" width="128" height="110.851" style="fill:rgb(229,189,115);stroke:rgb(229,189,115);stroke-width:12.47px;"/>
                        </g>
                        <g transform="matrix(0.866025,-0.5,1,0.57735,-332.554,960)">
                            <rect x="1024" y="554.256" width="128" height="110.851" style="fill:rgb(229,189,115);stroke:rgb(229,189,115);stroke-width:12.47px;"/>
                        </g>
                    </g>
                </g>
                <g id="squares_links1" serif:id="squares_links" transform="matrix(2.41553,0,0,2.41553,-1407.42,-1318.91)">
                    <g transform="matrix(0.866025,0.5,-5.55112e-17,1.1547,0,0)">
                        <rect x="768" y="332.554" width="128" height="110.851" style="fill:rgb(27,177,27);stroke:black;stroke-width:13.06px;"/>
                    </g>
                    <g transform="matrix(0.866025,0.5,-5.55112e-17,1.1547,0,0)">
                        <rect x="896" y="332.554" width="128" height="110.851" style="fill:rgb(27,177,27);stroke:black;stroke-width:13.06px;"/>
                    </g>
                    <g transform="matrix(0.848132,0.489669,-5.55112e-17,1.1547,18.3233,10.579)">
                        <rect x="1024" y="332.554" width="130.701" height="110.851" style="fill:rgb(27,177,27);stroke:black;stroke-width:13.18px;"/>
                    </g>
                    <g transform="matrix(0.848132,0.489669,-5.55112e-17,1.1547,18.3233,10.579)">
                        <rect x="1024" y="443.405" width="130.701" height="110.851" style="fill:rgb(27,177,27);stroke:black;stroke-width:13.18px;"/>
                    </g>
                    <g transform="matrix(0.866025,0.5,-5.55112e-17,1.1547,0,0)">
                        <rect x="896" y="443.405" width="128" height="110.851" style="fill:rgb(27,177,27);stroke:black;stroke-width:13.06px;"/>
                    </g>
                    <g transform="matrix(0.866025,0.5,-5.55112e-17,1.1547,0,0)">
                        <rect x="768" y="443.405" width="128" height="110.851" style="fill:rgb(27,177,27);stroke:black;stroke-width:13.06px;"/>
                    </g>
                    <g transform="matrix(0.866025,0.5,-5.55112e-17,1.1547,0,0)">
                        <rect x="768" y="554.256" width="128" height="110.851" style="fill:rgb(27,177,27);stroke:black;stroke-width:13.06px;"/>
                    </g>
                    <g transform="matrix(0.866025,0.5,-5.55112e-17,1.1547,0,0)">
                        <rect x="896" y="554.256" width="128" height="110.851" style="fill:rgb(27,177,27);stroke:black;stroke-width:13.06px;"/>
                    </g>
                    <g transform="matrix(0.866025,0.5,-5.55112e-17,1.1547,1.56006e-12,-1.06038e-13)">
                        <rect x="1024" y="554.256" width="128" height="110.851" style="fill:rgb(27,177,27);stroke:black;stroke-width:13.06px;"/>
                    </g>
                </g>
                <g id="squares_rechts1" serif:id="squares_rechts" transform="matrix(2.41553,0,0,2.41553,-1407.42,-1318.91)">
                    <g transform="matrix(0.866025,-0.5,5.55112e-17,1.1547,332.554,960)">
                        <rect x="768" y="332.554" width="128" height="110.851" style="fill:rgb(39,27,177);stroke:black;stroke-width:22.47px;"/>
                    </g>
                    <g transform="matrix(0.866025,-0.5,5.55112e-17,1.1547,332.554,960)">
                        <rect x="896" y="332.554" width="128" height="110.851" style="fill:rgb(39,27,177);stroke:black;stroke-width:22.47px;"/>
                    </g>
                    <g transform="matrix(0.848132,-0.489669,5.55112e-17,1.1547,350.877,949.421)">
                        <rect x="1024" y="332.554" width="130.701" height="110.851" style="fill:rgb(39,27,177);stroke:black;stroke-width:22.63px;"/>
                    </g>
                    <g transform="matrix(0.848132,-0.489669,5.55112e-17,1.1547,350.877,949.421)">
                        <rect x="1024" y="443.405" width="130.701" height="110.851" style="fill:rgb(39,27,177);stroke:black;stroke-width:22.63px;"/>
                    </g>
                    <g transform="matrix(0.866025,-0.5,5.55112e-17,1.1547,332.554,960)">
                        <rect x="896" y="443.405" width="128" height="110.851" style="fill:rgb(39,27,177);stroke:black;stroke-width:22.47px;"/>
                    </g>
                    <g transform="matrix(0.866025,-0.5,5.55112e-17,1.1547,332.554,960)">
                        <rect x="768" y="443.405" width="128" height="110.851" style="fill:rgb(39,27,177);stroke:black;stroke-width:22.47px;"/>
                    </g>
                    <g transform="matrix(0.866025,-0.5,5.55112e-17,1.1547,332.554,960)">
                        <rect x="768" y="554.256" width="128" height="110.851" style="fill:rgb(39,27,177);stroke:black;stroke-width:22.47px;"/>
                    </g>
                    <g transform="matrix(0.866025,-0.5,5.55112e-17,1.1547,332.554,960)">
                        <rect x="896" y="554.256" width="128" height="110.851" style="fill:rgb(39,27,177);stroke:black;stroke-width:22.47px;"/>
                    </g>
                    <g transform="matrix(0.866025,-0.5,5.55112e-17,1.1547,332.554,960)">
                        <rect x="1024" y="554.256" width="128" height="110.851" style="fill:rgb(39,27,177);stroke:black;stroke-width:22.47px;"/>
                    </g>
                </g>
                <g id="squares_top1" serif:id="squares_top" transform="matrix(2.41553,0,0,2.41553,-1407.42,-1318.91)">
                    <g transform="matrix(0.866025,-0.5,1,0.57735,-332.554,960)">
                        <rect x="768" y="332.554" width="128" height="110.851" style="fill:rgb(177,27,27);stroke:black;stroke-width:13.06px;"/>
                    </g>
                    <g transform="matrix(0.866025,-0.5,1,0.57735,-332.554,960)">
                        <rect x="896" y="332.554" width="128" height="110.851" style="fill:rgb(177,27,27);stroke:black;stroke-width:13.06px;"/>
                    </g>
                    <g transform="matrix(0.848132,-0.489669,1,0.57735,-314.23,949.421)">
                        <rect x="1024" y="332.554" width="130.701" height="110.851" style="fill:rgb(177,27,27);stroke:black;stroke-width:13.18px;"/>
                    </g>
                    <g transform="matrix(0.848132,-0.489669,1,0.57735,-314.23,949.421)">
                        <rect x="1024" y="443.405" width="130.701" height="110.851" style="fill:rgb(177,27,27);stroke:black;stroke-width:13.18px;"/>
                    </g>
                    <g transform="matrix(0.866025,-0.5,1,0.57735,-332.554,960)">
                        <rect x="896" y="443.405" width="128" height="110.851" style="fill:rgb(177,27,27);stroke:black;stroke-width:13.06px;"/>
                    </g>
                    <g transform="matrix(0.866025,-0.5,1,0.57735,-332.554,960)">
                        <rect x="768" y="443.405" width="128" height="110.851" style="fill:rgb(177,27,27);stroke:black;stroke-width:13.06px;"/>
                    </g>
                    <g transform="matrix(0.866025,-0.5,1,0.57735,-332.554,960)">
                        <rect x="768" y="554.256" width="128" height="110.851" style="fill:rgb(177,27,27);stroke:black;stroke-width:13.06px;"/>
                    </g>
                    <g transform="matrix(0.866025,-0.5,1,0.57735,-332.554,960)">
                        <rect x="896" y="554.256" width="128" height="110.851" style="fill:rgb(177,27,27);stroke:black;stroke-width:13.06px;"/>
                    </g>
                    <g transform="matrix(0.866025,-0.5,1,0.57735,-332.554,960)">
                        <rect x="1024" y="554.256" width="128" height="110.851" style="fill:rgb(177,27,27);stroke:black;stroke-width:13.06px;"/>
                    </g>
                </g>
            </g>
        </g>
    </g>
</svg>
