<?xml version="1.0" encoding="UTF-8" standalone="no"?>
<!DOCTYPE svg PUBLIC "-//W3C//DTD SVG 1.1//EN" "http://www.w3.org/Graphics/SVG/1.1/DTD/svg11.dtd">
<svg width="100%" height="100%" viewBox="0 0 2000 2000" version="1.1" xmlns="http://www.w3.org/2000/svg" xmlns:xlink="http://www.w3.org/1999/xlink" xml:space="preserve" xmlns:serif="http://www.serif.com/" style="fill-rule:evenodd;clip-rule:evenodd;stroke-linejoin:round;stroke-miterlimit:2;">
    <g id="Fernseher" transform="matrix(2.91267,0,0,2.91267,-1831.85,-1268.01)">
        <path d="M1066.94,950.354C1066.94,949.795 1066.49,949.341 1065.93,949.341L878.572,949.341C878.013,949.341 877.559,949.795 877.559,950.354L877.559,998.987C877.559,999.546 878.013,1000 878.572,1000L1065.93,1000C1066.49,1000 1066.94,999.546 1066.94,998.987L1066.94,950.354Z" style="fill:rgb(23,45,79);"/>
        <g transform="matrix(1.67476,0,0,0.263352,-656.037,736.648)">
            <path d="M1066.94,950.354C1066.94,949.795 1066.87,949.341 1066.78,949.341L877.718,949.341C877.63,949.341 877.559,949.795 877.559,950.354L877.559,998.987C877.559,999.546 877.63,1000 877.718,1000L1066.78,1000C1066.87,1000 1066.94,999.546 1066.94,998.987L1066.94,950.354Z" style="fill:rgb(23,45,79);"/>
        </g>
        <path d="M1302.5,578.274C1302.5,566.721 1293.12,557.341 1281.57,557.341L662.933,557.341C651.38,557.341 642,566.721 642,578.274L642,955.067C642,966.62 651.38,976 662.933,976L1281.57,976C1293.12,976 1302.5,966.62 1302.5,955.067L1302.5,578.274Z" style="fill:rgb(23,45,79);"/>
        <g transform="matrix(0.968861,0,0,0.95702,30.2746,32.9519)">
            <path d="M1302.5,569.901C1302.5,562.969 1296.94,557.341 1290.1,557.341L654.406,557.341C647.559,557.341 642,562.969 642,569.901L642,963.44C642,970.372 647.559,976 654.406,976L1290.1,976C1296.94,976 1302.5,970.372 1302.5,963.44L1302.5,569.901Z" style="fill:rgb(205,215,228);"/>
        </g>
        <g transform="matrix(1,0,0,1,80.5536,139.805)">
            <text x="665.108px" y="691px" style="font-family:'Roboto-Black', 'Roboto';font-weight:900;font-size:160.545px;fill:rgb(23,45,79);">VIDEO</text>
        </g>
    </g>
</svg>
