<?xml version="1.0" encoding="UTF-8" standalone="no"?>
<!DOCTYPE svg PUBLIC "-//W3C//DTD SVG 1.1//EN" "http://www.w3.org/Graphics/SVG/1.1/DTD/svg11.dtd">
<svg width="100%" height="100%" viewBox="0 0 2000 2000" version="1.1" xmlns="http://www.w3.org/2000/svg" xmlns:xlink="http://www.w3.org/1999/xlink" xml:space="preserve" xmlns:serif="http://www.serif.com/" style="fill-rule:evenodd;clip-rule:evenodd;stroke-linecap:round;stroke-linejoin:round;stroke-miterlimit:1.5;">
    <g id="Buchstabe" transform="matrix(1.77958,0,0,1.77958,-746.43,-866.171)">
        <g transform="matrix(0.56193,0,0,0.56193,419.441,486.727)">
            <path d="M1712.47,1221.79C1702.25,1310.09 1665.58,1406.87 1602.46,1503.65C1497.03,1676.86 1225.92,1850.07 1000,1965.54C774.078,1850.07 502.973,1676.86 397.543,1503.65C332.086,1403.29 295.077,1302.92 286.514,1212.02L286.438,1212.02L284.582,1193.28L284.582,45.538C497.049,74.014 740.867,90.212 1000,90.212C1259.14,90.212 1502.95,74.014 1715.42,45.539L1715.42,1193.74L1713.49,1212.02L1713.49,1212.02L1713.47,1212.28L1712.47,1221.79Z" style="fill:url(#_Linear1);stroke:white;stroke-width:25px;"/>
        </g>
        <g transform="matrix(0.56193,0,0,0.56193,419.441,486.727)">
            <path d="M1712.47,1221.79C1702.25,1310.09 1665.58,1406.87 1602.46,1503.65C1497.03,1676.86 1225.92,1850.07 1000,1965.54C774.078,1850.07 502.973,1676.86 397.543,1503.65C332.086,1403.29 295.077,1302.92 286.514,1212.02L286.438,1212.02L284.582,1193.28L284.582,45.538C497.049,74.014 740.867,90.212 1000,90.212C1259.14,90.212 1502.95,74.014 1715.42,45.539L1715.42,1193.74L1713.49,1212.02L1713.49,1212.02L1713.47,1212.28L1712.47,1221.79Z" style="fill:url(#_Linear2);stroke:white;stroke-width:25px;"/>
        </g>
        <g transform="matrix(0.56193,0,0,0.56193,419.441,486.727)">
            <path d="M1712.47,1221.79C1702.25,1310.09 1665.58,1406.87 1602.46,1503.65C1497.03,1676.86 1225.92,1850.07 1000,1965.54C774.078,1850.07 502.973,1676.86 397.543,1503.65C332.086,1403.29 295.077,1302.92 286.514,1212.02L286.438,1212.02L284.582,1193.28L284.582,45.538C497.049,74.014 740.867,90.212 1000,90.212C1259.14,90.212 1502.95,74.014 1715.42,45.539L1715.42,1193.74L1713.49,1212.02L1713.49,1212.02L1713.47,1212.28L1712.47,1221.79Z" style="fill:url(#_Linear3);stroke:white;stroke-width:25px;"/>
        </g>
        <g id="Buchstabe1" serif:id="Buchstabe" transform="matrix(-0.00442995,0.937258,-0.937258,-0.00442995,1378.88,411.08)">
            <path d="M321.819,573.168L203.877,373.074L285.348,224.138L730.927,89.016L805.103,209.996L739.594,303.89L756.794,335.775L894.039,354.8L1026.91,537.738L947.81,687.936L769.152,656.078L730.449,649.38L688.762,724.158C688.762,724.158 630.996,734.377 579.432,694.864C557.486,678.047 536.663,652.22 521.896,612.763L321.819,573.168Z" style="fill:url(#_Linear4);"/>
        </g>
        <g transform="matrix(0.56193,0,0,0.56193,419.441,486.727)">
            <path d="M1083.25,193.676C1081.81,193.723 1080.38,194.122 1079.1,194.871L869.855,316.877L745.023,388.949C743.408,389.881 742.16,391.282 741.41,392.924C740.845,393.819 740.439,394.818 740.224,395.879L673.577,724.493C608.327,749.417 565.262,784.281 536.882,820.955C468.076,909.872 485.444,1009.97 485.444,1009.97C485.893,1012.58 487.495,1014.86 489.804,1016.16L608.752,1083.21L598.969,1138.19L542.641,1438.52C541.93,1442.3 543.762,1446.12 547.164,1447.93L547.578,1448.15C547.829,1448.32 548.09,1448.47 548.362,1448.62L798.258,1581.74C800.973,1583.18 804.225,1583.1 806.848,1581.57C807.254,1581.34 807.638,1581.08 807.998,1580.79L1113.73,1360.93C1115.67,1359.53 1116.97,1357.4 1117.31,1355.03L1149.49,1130.69L1193.89,1107L1231.2,1133.08L1345.72,1213.79C1348.59,1215.81 1352.38,1215.94 1355.38,1214.12L1557.75,1091.35C1561.18,1089.27 1562.77,1085.14 1561.62,1081.29L1339.76,337.033L1339.63,336.611L1339.47,336.205L1339.3,335.809L1339.11,335.424L1338.9,335.052L1338.67,334.693L1338.43,334.346L1338.17,334.012L1337.9,333.69L1337.61,333.381L1337.31,333.084L1336.92,332.747L1336.48,332.408L1336.12,332.161L1335.72,331.915L1094.17,192.458C1091.45,190.882 1088.08,190.882 1085.36,192.458L1083.25,193.676ZM562.354,1436.03L615.728,1144.69L616.318,1141.37L625.519,1092.31C625.519,1092.31 717.676,1141.26 717.676,1141.26C720.088,1142.54 722.956,1142.63 725.444,1141.51C727.932,1140.38 729.759,1138.17 730.392,1135.51C730.392,1135.51 758.42,1019.26 888.381,1019.77L888.38,1019.77C888.38,1019.77 809.687,1479.61 795.866,1560.37L562.354,1436.03ZM1326.05,352.774L995.913,543.379L936.479,858.826C935.718,862.863 932.278,865.822 928.208,866.003L927.812,866.012L927.392,866.012C919.507,867.149 825.4,882.35 770.283,967.004C750.37,997.588 735.619,1037.2 731.678,1088.38C754.687,1049.1 803.3,997.785 899.216,1002.42C901.738,1002.54 904.086,1003.74 905.667,1005.71C907.248,1007.68 907.909,1010.23 907.483,1012.72L814.825,1554.16L1100.38,1348.81L1132.66,1123.76C1133.06,1120.98 1134.76,1118.55 1137.24,1117.23L1190.29,1088.93L1293.44,1028.07C1295.77,1026.69 1298.61,1026.47 1301.13,1027.45C1303.65,1028.44 1305.58,1030.53 1306.37,1033.12L1354.77,1193.85L1542.78,1079.8L1326.05,352.774ZM1210.95,1097.23L1292.72,1048.98L1332.99,1182.71L1241.34,1118.65L1210.95,1097.23ZM755.323,410.171L689.893,732.786C689.285,735.781 687.17,738.249 684.302,739.307C620.29,762.92 578.234,796.338 550.832,831.75C494.881,904.053 500.138,984.265 502.285,1002.95L622.862,1070.91L623.199,1071.11L713.002,1118.8C712.551,1048.34 730.294,996.095 755.501,957.38C809.342,874.688 897.717,853.5 920.32,849.325L978.757,539.17L755.323,410.171ZM991.162,525.754L1313.39,339.716L1084.69,213.207L878.707,332.133L767.623,396.905L990.511,525.59C990.732,525.637 990.949,525.692 991.162,525.754Z" style="fill:white;"/>
        </g>
    </g>
    <defs>
        <linearGradient id="_Linear1" x1="0" y1="0" x2="1" y2="0" gradientUnits="userSpaceOnUse" gradientTransform="matrix(1742.81,-1132,1132,1742.81,155,1415)"><stop offset="0" style="stop-color:rgb(205,215,228);stop-opacity:1"/><stop offset="1" style="stop-color:rgb(89,138,207);stop-opacity:1"/></linearGradient>
        <linearGradient id="_Linear2" x1="0" y1="0" x2="1" y2="0" gradientUnits="userSpaceOnUse" gradientTransform="matrix(1743,-1132.11,1132.11,1743,155,1415)"><stop offset="0" style="stop-color:rgb(135,108,94);stop-opacity:1"/><stop offset="1" style="stop-color:rgb(94,57,37);stop-opacity:1"/></linearGradient>
        <linearGradient id="_Linear3" x1="0" y1="0" x2="1" y2="0" gradientUnits="userSpaceOnUse" gradientTransform="matrix(1746,-1135.11,1135.11,1746,152,1418)"><stop offset="0" style="stop-color:rgb(23,45,79);stop-opacity:1"/><stop offset="1" style="stop-color:rgb(83,110,151);stop-opacity:1"/></linearGradient>
        <linearGradient id="_Linear4" x1="0" y1="0" x2="1" y2="0" gradientUnits="userSpaceOnUse" gradientTransform="matrix(279.274,609.924,-609.924,279.274,497.365,120.201)"><stop offset="0" style="stop-color:rgb(232,179,61);stop-opacity:1"/><stop offset="1" style="stop-color:rgb(183,127,0);stop-opacity:1"/></linearGradient>
    </defs>
</svg>
