<?xml version="1.0" encoding="UTF-8" standalone="no"?>
<!DOCTYPE svg PUBLIC "-//W3C//DTD SVG 1.1//EN" "http://www.w3.org/Graphics/SVG/1.1/DTD/svg11.dtd">
<svg width="100%" height="100%" viewBox="0 0 1000 1000" version="1.1" xmlns="http://www.w3.org/2000/svg" xmlns:xlink="http://www.w3.org/1999/xlink" xml:space="preserve" xmlns:serif="http://www.serif.com/" style="fill-rule:evenodd;clip-rule:evenodd;stroke-linecap:round;stroke-linejoin:round;stroke-miterlimit:1.5;">
    <g id="Sechseck" transform="matrix(6.12323e-17,1,-1,6.12323e-17,990.479,-9.43757)">
        <path d="M268.975,892.026L23.952,491.034L259.175,89.016L728.244,89.82L975.964,483.474L730.951,886.04L268.975,892.026Z" style="fill:rgb(23,46,79);stroke:white;stroke-width:6.25px;"/>
    </g>
    <g id="Buchstabe" transform="matrix(6.12323e-17,1,-1,6.12323e-17,990.479,-9.43757)">
        <path d="M321.819,573.168L194.847,376.318L278.89,229.02L730.927,89.016L805.103,209.996L739.594,303.89L756.794,335.775L894.039,354.8L975.964,482.904L863.383,669.054L769.95,653.652L733.387,647.862L688.762,724.158C688.762,724.158 571.361,744.928 521.896,612.763L321.819,573.168Z" style="fill:rgb(229,188,113);stroke:white;stroke-width:6.25px;"/>
    </g>
</svg>
