<?xml version="1.0" encoding="UTF-8" standalone="no"?>
<!DOCTYPE svg PUBLIC "-//W3C//DTD SVG 1.1//EN" "http://www.w3.org/Graphics/SVG/1.1/DTD/svg11.dtd">
<svg width="100%" height="100%" viewBox="0 0 2000 2000" version="1.1" xmlns="http://www.w3.org/2000/svg" xmlns:xlink="http://www.w3.org/1999/xlink" xml:space="preserve" xmlns:serif="http://www.serif.com/" style="fill-rule:evenodd;clip-rule:evenodd;stroke-linecap:round;stroke-linejoin:round;stroke-miterlimit:1.5;">
    <g id="Halter" transform="matrix(2.51168,0,0,2.5065,-1506.19,-1087.29)">
        <path d="M1243,554.732C1243,535.563 1227.47,520 1208.34,520L793.66,520C774.531,520 759,535.563 759,554.732L759,1164.27C759,1183.44 774.531,1199 793.66,1199L1208.34,1199C1227.47,1199 1243,1183.44 1243,1164.27L1243,554.732Z" style="fill:rgb(82,82,82);stroke:rgb(228,188,115);stroke-width:0.4px;"/>
    </g>
    <g id="Papier" transform="matrix(2.17679,0,0,2.26779,-1170.96,-882.118)">
        <path d="M1243,550.216C1243,533.539 1228.89,520 1211.52,520L790.479,520C773.105,520 759,533.539 759,550.216L759,1168.78C759,1185.46 773.105,1199 790.479,1199L1211.52,1199C1228.89,1199 1243,1185.46 1243,1168.78L1243,550.216Z" style="fill:rgb(82,224,91);"/>
        <path d="M1243,550.216C1243,533.539 1228.89,520 1211.52,520L790.479,520C773.105,520 759,533.539 759,550.216L759,1168.78C759,1185.46 773.105,1199 790.479,1199L1211.52,1199C1228.89,1199 1243,1185.46 1243,1168.78L1243,550.216ZM1220.03,550.216L1220.03,1168.78C1220.03,1173.29 1216.22,1176.95 1211.52,1176.95L790.479,1176.95C785.783,1176.95 781.97,1173.29 781.97,1168.78L781.97,550.216C781.97,545.708 785.783,542.048 790.479,542.048C790.479,542.048 1211.52,542.048 1211.52,542.048C1216.22,542.048 1220.03,545.708 1220.03,550.216Z" style="fill:white;"/>
    </g>
    <g id="Klammer" transform="matrix(2.53261,0,0,2.53261,-1544.87,-1080.61)">
        <path d="M992,480L952,480C938.754,480 928,490.754 928,504L928,552C928,565.246 938.754,576 952,576L1064,576C1077.25,576 1088,565.246 1088,552L1088,504C1088,490.754 1077.25,480 1064,480L1024,480L1024,456C1024,451.585 1020.42,448 1016,448L1000,448C995.585,448 992,451.585 992,456L992,480Z" style="fill:rgb(228,188,115);"/>
    </g>
    <g id="Fliesstext" transform="matrix(1.35783,0,0,1.35783,-507.195,-558.91)">
        <g transform="matrix(2.53261,0,0,2.53261,-1585.39,-1040.09)">
            <path d="M960,800L1088,800" style="fill:none;stroke:white;stroke-width:12.12px;"/>
        </g>
        <g transform="matrix(2.53261,0,0,2.53261,-1585.39,-1040.09)">
            <path d="M1120,800L1184,800" style="fill:none;stroke:white;stroke-width:12.12px;"/>
        </g>
        <g transform="matrix(2.53261,0,0,2.53261,-1585.39,-1040.09)">
            <path d="M960,832L1024,832" style="fill:none;stroke:white;stroke-width:12.12px;"/>
        </g>
        <g transform="matrix(2.53261,0,0,2.53261,-1585.39,-1040.09)">
            <path d="M1056,832L1184,832" style="fill:none;stroke:white;stroke-width:12.12px;"/>
        </g>
        <g transform="matrix(2.53261,0,0,2.53261,-1585.39,-1040.09)">
            <path d="M960,864L992,864" style="fill:none;stroke:white;stroke-width:12.12px;"/>
        </g>
        <g transform="matrix(2.53261,0,0,2.53261,-1585.39,-1040.09)">
            <path d="M1024,864L1088,864" style="fill:none;stroke:white;stroke-width:12.12px;"/>
        </g>
        <g transform="matrix(2.53261,0,0,2.53261,-1585.39,-1040.09)">
            <path d="M1120,864L1184,864" style="fill:none;stroke:white;stroke-width:12.12px;"/>
        </g>
    </g>
    <g id="Fliesstext1" serif:id="Fliesstext" transform="matrix(1.35783,0,0,1.35783,-507.195,-239.54)">
        <g transform="matrix(2.53261,0,0,2.53261,-1585.39,-1040.09)">
            <path d="M960,800L1088,800" style="fill:none;stroke:white;stroke-width:12.12px;"/>
        </g>
        <g transform="matrix(2.53261,0,0,2.53261,-1585.39,-1040.09)">
            <path d="M1120,800L1184,800" style="fill:none;stroke:white;stroke-width:12.12px;"/>
        </g>
        <g transform="matrix(2.53261,0,0,2.53261,-1585.39,-1040.09)">
            <path d="M960,832L1024,832" style="fill:none;stroke:white;stroke-width:12.12px;"/>
        </g>
        <g transform="matrix(2.53261,0,0,2.53261,-1585.39,-1040.09)">
            <path d="M1056,832L1184,832" style="fill:none;stroke:white;stroke-width:12.12px;"/>
        </g>
        <g transform="matrix(2.53261,0,0,2.53261,-1585.39,-1040.09)">
            <path d="M960,864L992,864" style="fill:none;stroke:white;stroke-width:12.12px;"/>
        </g>
        <g transform="matrix(2.53261,0,0,2.53261,-1585.39,-1040.09)">
            <path d="M1024,864L1088,864" style="fill:none;stroke:white;stroke-width:12.12px;"/>
        </g>
        <g transform="matrix(2.53261,0,0,2.53261,-1585.39,-1040.09)">
            <path d="M1120,864L1184,864" style="fill:none;stroke:white;stroke-width:12.12px;"/>
        </g>
    </g>
    <g id="Ueberschrift" transform="matrix(1.63938,0,0,1.63938,-291.098,-551.357)">
        <path d="M655.462,622.456L611.008,622.456L611.008,743L575.302,743L575.302,622.456L531.662,622.456L531.662,594.888L655.462,594.888L655.462,622.456Z" style="fill:white;fill-rule:nonzero;"/>
        <path d="M643.458,686.949C643.458,675.963 645.594,666.18 649.867,657.602C654.139,649.023 660.277,642.428 668.279,637.816C676.282,633.205 685.674,630.899 696.457,630.899C712.937,630.899 725.923,636.002 735.418,646.208C744.912,656.415 749.659,670.3 749.659,687.865L749.659,689.086C749.659,706.243 744.895,719.858 735.367,729.928C725.839,739.999 712.937,745.035 696.66,745.035C680.995,745.035 668.415,740.338 658.92,730.946C649.426,721.553 644.306,708.82 643.56,692.748L643.458,686.949ZM677.74,689.086C677.74,699.258 679.333,706.718 682.521,711.465C685.708,716.212 690.421,718.586 696.66,718.586C708.868,718.586 715.107,709.193 715.378,690.408L715.378,686.949C715.378,667.215 709.071,657.347 696.457,657.347C684.996,657.347 678.791,665.858 677.841,682.88L677.74,689.086Z" style="fill:white;fill-rule:nonzero;"/>
        <path d="M818.222,743L818.222,594.888L865.931,594.888C879.02,594.888 890.786,597.855 901.23,603.789C911.674,609.723 919.829,618.098 925.695,628.915C931.561,639.732 934.528,651.854 934.596,665.282L934.596,672.097C934.596,685.661 931.731,697.817 926,708.566C920.27,719.315 912.199,727.724 901.789,733.794C891.38,739.863 879.766,742.932 866.949,743L818.222,743ZM853.928,622.456L853.928,715.534L866.338,715.534C876.579,715.534 884.445,711.889 889.938,704.599C895.432,697.308 898.178,686.475 898.178,672.097L898.178,665.689C898.178,651.379 895.432,640.597 889.938,633.34C884.445,626.084 876.443,622.456 865.931,622.456L853.928,622.456Z" style="fill:white;fill-rule:nonzero;"/>
        <path d="M947.006,686.949C947.006,675.963 949.143,666.18 953.415,657.602C957.687,649.023 963.825,642.428 971.827,637.816C979.83,633.205 989.222,630.899 1000,630.899C1016.49,630.899 1029.47,636.002 1038.97,646.208C1048.46,656.415 1053.21,670.3 1053.21,687.865L1053.21,689.086C1053.21,706.243 1048.44,719.858 1038.91,729.928C1029.39,739.999 1016.49,745.035 1000.21,745.035C984.543,745.035 971.963,740.338 962.469,730.946C952.974,721.553 947.854,708.82 947.108,692.748L947.006,686.949ZM981.288,689.086C981.288,699.258 982.881,706.718 986.069,711.465C989.256,716.212 993.97,718.586 1000.21,718.586C1012.42,718.586 1018.65,709.193 1018.93,690.408L1018.93,686.949C1018.93,667.215 1012.62,657.347 1000,657.347C988.544,657.347 982.339,665.858 981.389,682.88L981.288,689.086Z" style="fill:white;fill-rule:nonzero;"/>
    </g>
    <g id="Schwierigkeitsangabe" transform="matrix(4.46272,0,0,4.46272,-2990.6,-1842.09)">
        <path d="M928,752C928,743.169 920.831,736 912,736L880,736C871.169,736 864,743.169 864,752L864,784C864,792.831 871.169,800 880,800L912,800C920.831,800 928,792.831 928,784L928,752Z" style="fill:white;"/>
    </g>
    <g id="Haken" transform="matrix(1.76211,0,0,1.76211,-197.274,-244.963)">
        <path d="M585.14,1000L683.826,1088L840.245,931.581" style="fill:none;stroke:rgb(23,46,76);stroke-width:47.29px;"/>
    </g>
</svg>
