<?xml version="1.0" encoding="UTF-8" standalone="no"?>
<!DOCTYPE svg PUBLIC "-//W3C//DTD SVG 1.1//EN" "http://www.w3.org/Graphics/SVG/1.1/DTD/svg11.dtd">
<svg width="100%" height="100%" viewBox="0 0 2000 2000" version="1.1" xmlns="http://www.w3.org/2000/svg" xmlns:xlink="http://www.w3.org/1999/xlink" xml:space="preserve" xmlns:serif="http://www.serif.com/" style="fill-rule:evenodd;clip-rule:evenodd;stroke-linecap:round;stroke-linejoin:round;stroke-miterlimit:1.5;">
    <g id="Strahlen" transform="matrix(1.05087,0,0,1.05087,-50.9992,-50.874)">
        <g transform="matrix(1.12685,3.10715e-17,-3.76577e-16,0.280806,-124.393,36.4039)">
            <path d="M1012.5,958.65L1012.5,154C1012.5,147.124 1006.9,141.542 1000,141.542C993.101,141.542 987.5,147.124 987.5,154L987.5,958.65C987.5,965.526 993.101,971.108 1000,971.108C1006.9,971.108 1012.5,965.526 1012.5,958.65Z" style="fill:rgb(239,196,115);"/>
        </g>
        <g transform="matrix(0.796805,0.796805,-0.198766,0.198766,887.049,-478.2)">
            <path d="M1012.5,958.65L1012.5,154C1012.5,147.124 1006.9,141.542 1000,141.542C993.101,141.542 987.5,147.124 987.5,154L987.5,958.65C987.5,965.526 993.101,971.108 1000,971.108C1006.9,971.108 1012.5,965.526 1012.5,958.65Z" style="fill:rgb(239,196,115);"/>
        </g>
        <g transform="matrix(5.83392e-16,-1.12685,0.281495,-5.33513e-17,38.7662,2126.85)">
            <path d="M1012.5,958.65L1012.5,154C1012.5,147.124 1006.9,141.542 1000,141.542C993.101,141.542 987.5,147.124 987.5,154L987.5,958.65C987.5,965.526 993.101,971.108 1000,971.108C1006.9,971.108 1012.5,965.526 1012.5,958.65Z" style="fill:rgb(239,196,115);"/>
        </g>
        <g transform="matrix(0.796805,-0.796805,0.199231,0.199231,-475.806,1115.34)">
            <path d="M1012.5,958.65L1012.5,154C1012.5,147.124 1006.9,141.542 1000,141.542C993.101,141.542 987.5,147.124 987.5,154L987.5,958.65C987.5,965.526 993.101,971.108 1000,971.108C1006.9,971.108 1012.5,965.526 1012.5,958.65Z" style="fill:rgb(239,196,115);"/>
        </g>
        <g transform="matrix(-1.12685,-1.45554e-16,3.15134e-16,-0.281737,2129.31,1963.73)">
            <path d="M1012.5,958.65L1012.5,154C1012.5,147.124 1006.9,141.542 1000,141.542C993.101,141.542 987.5,147.124 987.5,154L987.5,958.65C987.5,965.526 993.101,971.108 1000,971.108C1006.9,971.108 1012.5,965.526 1012.5,958.65Z" style="fill:rgb(239,196,115);"/>
        </g>
        <g transform="matrix(-0.796805,-0.796805,0.199356,-0.199356,1117.79,2478.28)">
            <path d="M1012.5,958.65L1012.5,154C1012.5,147.124 1006.9,141.542 1000,141.542C993.101,141.542 987.5,147.124 987.5,154L987.5,958.65C987.5,965.526 993.101,971.108 1000,971.108C1006.9,971.108 1012.5,965.526 1012.5,958.65Z" style="fill:rgb(239,196,115);"/>
        </g>
        <g transform="matrix(-4.45386e-16,1.12685,-0.281378,8.78691e-17,1966.14,-126.852)">
            <path d="M1012.5,958.65L1012.5,154C1012.5,147.124 1006.9,141.542 1000,141.542C993.101,141.542 987.5,147.124 987.5,154L987.5,958.65C987.5,965.526 993.101,971.108 1000,971.108C1006.9,971.108 1012.5,965.526 1012.5,958.65Z" style="fill:rgb(239,196,115);"/>
        </g>
        <g transform="matrix(-0.796805,0.796805,-0.198892,-0.198892,2480.68,884.607)">
            <path d="M1012.5,958.65L1012.5,154C1012.5,147.124 1006.9,141.542 1000,141.542C993.101,141.542 987.5,147.124 987.5,154L987.5,958.65C987.5,965.526 993.101,971.108 1000,971.108C1006.9,971.108 1012.5,965.526 1012.5,958.65Z" style="fill:rgb(239,196,115);"/>
        </g>
        <g transform="matrix(0.975883,0.563426,-0.140409,0.243196,508.376,-397.926)">
            <path d="M1012.5,958.65L1012.5,154C1012.5,147.124 1006.9,141.542 1000,141.542C993.101,141.542 987.5,147.124 987.5,154L987.5,958.65C987.5,965.526 993.101,971.108 1000,971.108C1006.9,971.108 1012.5,965.526 1012.5,958.65Z" style="fill:rgb(239,196,115);"/>
        </g>
        <g transform="matrix(0.291651,1.08846,-0.271529,0.072756,1641.61,-337.864)">
            <path d="M1012.5,958.65L1012.5,154C1012.5,147.124 1006.9,141.542 1000,141.542C993.101,141.542 987.5,147.124 987.5,154L987.5,958.65C987.5,965.526 993.101,971.108 1000,971.108C1006.9,971.108 1012.5,965.526 1012.5,958.65Z" style="fill:rgb(239,196,115);"/>
        </g>
        <g transform="matrix(0.563426,-0.975883,0.243769,0.14074,-395.548,1494.04)">
            <path d="M1012.5,958.65L1012.5,154C1012.5,147.124 1006.9,141.542 1000,141.542C993.101,141.542 987.5,147.124 987.5,154L987.5,958.65C987.5,965.526 993.101,971.108 1000,971.108C1006.9,971.108 1012.5,965.526 1012.5,958.65Z" style="fill:rgb(239,196,115);"/>
        </g>
        <g transform="matrix(1.08846,-0.291651,0.0727173,0.271385,-335.399,360.868)">
            <path d="M1012.5,958.65L1012.5,154C1012.5,147.124 1006.9,141.542 1000,141.542C993.101,141.542 987.5,147.124 987.5,154L987.5,958.65C987.5,965.526 993.101,971.108 1000,971.108C1006.9,971.108 1012.5,965.526 1012.5,958.65Z" style="fill:rgb(239,196,115);"/>
        </g>
        <g transform="matrix(-0.975883,-0.563426,0.140861,-0.243978,1496.48,2398.04)">
            <path d="M1012.5,958.65L1012.5,154C1012.5,147.124 1006.9,141.542 1000,141.542C993.101,141.542 987.5,147.124 987.5,154L987.5,958.65C987.5,965.526 993.101,971.108 1000,971.108C1006.9,971.108 1012.5,965.526 1012.5,958.65Z" style="fill:rgb(239,196,115);"/>
        </g>
        <g transform="matrix(-0.291651,-1.08846,0.271984,-0.0728778,363.243,2337.88)">
            <path d="M1012.5,958.65L1012.5,154C1012.5,147.124 1006.9,141.542 1000,141.542C993.101,141.542 987.5,147.124 987.5,154L987.5,958.65C987.5,965.526 993.101,971.108 1000,971.108C1006.9,971.108 1012.5,965.526 1012.5,958.65Z" style="fill:rgb(239,196,115);"/>
        </g>
        <g transform="matrix(-0.563426,0.975883,-0.243909,-0.140821,2400.49,505.974)">
            <path d="M1012.5,958.65L1012.5,154C1012.5,147.124 1006.9,141.542 1000,141.542C993.101,141.542 987.5,147.124 987.5,154L987.5,958.65C987.5,965.526 993.101,971.108 1000,971.108C1006.9,971.108 1012.5,965.526 1012.5,958.65Z" style="fill:rgb(239,196,115);"/>
        </g>
        <g transform="matrix(-1.08846,0.291651,-0.0728005,-0.271695,2340.33,1639.18)">
            <path d="M1012.5,958.65L1012.5,154C1012.5,147.124 1006.9,141.542 1000,141.542C993.101,141.542 987.5,147.124 987.5,154L987.5,958.65C987.5,965.526 993.101,971.108 1000,971.108C1006.9,971.108 1012.5,965.526 1012.5,958.65Z" style="fill:rgb(239,196,115);"/>
        </g>
        <g transform="matrix(0.563426,0.975883,-0.243468,0.140566,1273.57,-457.704)">
            <path d="M1012.5,958.65L1012.5,154C1012.5,147.124 1006.9,141.542 1000,141.542C993.101,141.542 987.5,147.124 987.5,154L987.5,958.65C987.5,965.526 993.101,971.108 1000,971.108C1006.9,971.108 1012.5,965.526 1012.5,958.65Z" style="fill:rgb(239,196,115);"/>
        </g>
        <g transform="matrix(-0.291651,1.08846,-0.271891,-0.0728529,2224.97,160.966)">
            <path d="M1012.5,958.65L1012.5,154C1012.5,147.124 1006.9,141.542 1000,141.542C993.101,141.542 987.5,147.124 987.5,154L987.5,958.65C987.5,965.526 993.101,971.108 1000,971.108C1006.9,971.108 1012.5,965.526 1012.5,958.65Z" style="fill:rgb(239,196,115);"/>
        </g>
        <g transform="matrix(0.975883,-0.563426,0.140741,0.24377,-455.269,728.845)">
            <path d="M1012.5,958.65L1012.5,154C1012.5,147.124 1006.9,141.542 1000,141.542C993.101,141.542 987.5,147.124 987.5,154L987.5,958.65C987.5,965.526 993.101,971.108 1000,971.108C1006.9,971.108 1012.5,965.526 1012.5,958.65Z" style="fill:rgb(239,196,115);"/>
        </g>
        <g transform="matrix(1.08846,0.291651,-0.0725019,0.270581,163.376,-222.32)">
            <path d="M1012.5,958.65L1012.5,154C1012.5,147.124 1006.9,141.542 1000,141.542C993.101,141.542 987.5,147.124 987.5,154L987.5,958.65C987.5,965.526 993.101,971.108 1000,971.108C1006.9,971.108 1012.5,965.526 1012.5,958.65Z" style="fill:rgb(239,196,115);"/>
        </g>
        <g transform="matrix(-0.563426,-0.975883,0.244101,-0.140932,731.258,2457.76)">
            <path d="M1012.5,958.65L1012.5,154C1012.5,147.124 1006.9,141.542 1000,141.542C993.101,141.542 987.5,147.124 987.5,154L987.5,958.65C987.5,965.526 993.101,971.108 1000,971.108C1006.9,971.108 1012.5,965.526 1012.5,958.65Z" style="fill:rgb(239,196,115);"/>
        </g>
        <g transform="matrix(0.291651,-1.08846,0.27182,0.0728338,-220.036,1839.04)">
            <path d="M1012.5,958.65L1012.5,154C1012.5,147.124 1006.9,141.542 1000,141.542C993.101,141.542 987.5,147.124 987.5,154L987.5,958.65C987.5,965.526 993.101,971.108 1000,971.108C1006.9,971.108 1012.5,965.526 1012.5,958.65Z" style="fill:rgb(239,196,115);"/>
        </g>
        <g transform="matrix(-0.975883,0.563426,-0.140864,-0.243983,2460.21,1271.19)">
            <path d="M1012.5,958.65L1012.5,154C1012.5,147.124 1006.9,141.542 1000,141.542C993.101,141.542 987.5,147.124 987.5,154L987.5,958.65C987.5,965.526 993.101,971.108 1000,971.108C1006.9,971.108 1012.5,965.526 1012.5,958.65Z" style="fill:rgb(239,196,115);"/>
        </g>
        <g transform="matrix(-1.08846,-0.291651,0.0728666,-0.271942,1841.49,2222.51)">
            <path d="M1012.5,958.65L1012.5,154C1012.5,147.124 1006.9,141.542 1000,141.542C993.101,141.542 987.5,147.124 987.5,154L987.5,958.65C987.5,965.526 993.101,971.108 1000,971.108C1006.9,971.108 1012.5,965.526 1012.5,958.65Z" style="fill:rgb(239,196,115);"/>
        </g>
    </g>
    <g id="squares_links" transform="matrix(1.8361,0,0,1.8361,-831.803,-764.074)">
        <g transform="matrix(0.866025,0.5,-5.55112e-17,1.1547,0,0)">
            <rect x="768" y="332.554" width="128" height="110.851" style="fill:rgb(27,177,27);stroke:black;stroke-width:10.31px;"/>
        </g>
        <g transform="matrix(0.866025,0.5,-5.55112e-17,1.1547,0,0)">
            <rect x="896" y="332.554" width="128" height="110.851" style="fill:rgb(27,177,27);stroke:black;stroke-width:10.31px;"/>
        </g>
        <g transform="matrix(0.848132,0.489669,-5.55112e-17,1.1547,18.3233,10.579)">
            <rect x="1024" y="332.554" width="130.701" height="110.851" style="fill:rgb(27,177,27);stroke:black;stroke-width:10.41px;"/>
        </g>
        <g transform="matrix(0.848132,0.489669,-5.55112e-17,1.1547,18.3233,10.579)">
            <rect x="1024" y="443.405" width="130.701" height="110.851" style="fill:rgb(27,177,27);stroke:black;stroke-width:10.41px;"/>
        </g>
        <g transform="matrix(0.866025,0.5,-5.55112e-17,1.1547,0,0)">
            <rect x="896" y="443.405" width="128" height="110.851" style="fill:rgb(27,177,27);stroke:black;stroke-width:10.31px;"/>
        </g>
        <g transform="matrix(0.866025,0.5,-5.55112e-17,1.1547,0,0)">
            <rect x="768" y="443.405" width="128" height="110.851" style="fill:rgb(27,177,27);stroke:black;stroke-width:10.31px;"/>
        </g>
        <g transform="matrix(0.866025,0.5,-5.55112e-17,1.1547,0,0)">
            <rect x="768" y="554.256" width="128" height="110.851" style="fill:rgb(27,177,27);stroke:black;stroke-width:10.31px;"/>
        </g>
        <g transform="matrix(0.866025,0.5,-5.55112e-17,1.1547,0,0)">
            <rect x="896" y="554.256" width="128" height="110.851" style="fill:rgb(27,177,27);stroke:black;stroke-width:10.31px;"/>
        </g>
        <g transform="matrix(0.866025,0.5,-5.55112e-17,1.1547,1.56006e-12,-1.06038e-13)">
            <rect x="1024" y="554.256" width="128" height="110.851" style="fill:rgb(27,177,27);stroke:black;stroke-width:10.31px;"/>
        </g>
    </g>
    <g id="squares_rechts" transform="matrix(1.8361,0,0,1.8361,-831.803,-764.074)">
        <g transform="matrix(0.866025,-0.5,5.55112e-17,1.1547,332.554,960)">
            <rect x="768" y="332.554" width="128" height="110.851" style="fill:rgb(39,27,177);stroke:black;stroke-width:17.74px;"/>
        </g>
        <g transform="matrix(0.866025,-0.5,5.55112e-17,1.1547,332.554,960)">
            <rect x="896" y="332.554" width="128" height="110.851" style="fill:rgb(39,27,177);stroke:black;stroke-width:17.74px;"/>
        </g>
        <g transform="matrix(0.848132,-0.489669,5.55112e-17,1.1547,350.877,949.421)">
            <rect x="1024" y="332.554" width="130.701" height="110.851" style="fill:rgb(39,27,177);stroke:black;stroke-width:17.87px;"/>
        </g>
        <g transform="matrix(0.848132,-0.489669,5.55112e-17,1.1547,350.877,949.421)">
            <rect x="1024" y="443.405" width="130.701" height="110.851" style="fill:rgb(39,27,177);stroke:black;stroke-width:17.87px;"/>
        </g>
        <g transform="matrix(0.866025,-0.5,5.55112e-17,1.1547,332.554,960)">
            <rect x="896" y="443.405" width="128" height="110.851" style="fill:rgb(39,27,177);stroke:black;stroke-width:17.74px;"/>
        </g>
        <g transform="matrix(0.866025,-0.5,5.55112e-17,1.1547,332.554,960)">
            <rect x="768" y="443.405" width="128" height="110.851" style="fill:rgb(39,27,177);stroke:black;stroke-width:17.74px;"/>
        </g>
        <g transform="matrix(0.866025,-0.5,5.55112e-17,1.1547,332.554,960)">
            <rect x="768" y="554.256" width="128" height="110.851" style="fill:rgb(39,27,177);stroke:black;stroke-width:17.74px;"/>
        </g>
        <g transform="matrix(0.866025,-0.5,5.55112e-17,1.1547,332.554,960)">
            <rect x="896" y="554.256" width="128" height="110.851" style="fill:rgb(39,27,177);stroke:black;stroke-width:17.74px;"/>
        </g>
        <g transform="matrix(0.866025,-0.5,5.55112e-17,1.1547,332.554,960)">
            <rect x="1024" y="554.256" width="128" height="110.851" style="fill:rgb(39,27,177);stroke:black;stroke-width:17.74px;"/>
        </g>
    </g>
    <g id="squares_top" transform="matrix(1.8361,0,0,1.8361,-831.803,-764.074)">
        <g transform="matrix(0.866025,-0.5,1,0.57735,-332.554,960)">
            <rect x="768" y="332.554" width="128" height="110.851" style="fill:rgb(177,27,27);stroke:black;stroke-width:10.31px;"/>
        </g>
        <g transform="matrix(0.866025,-0.5,1,0.57735,-332.554,960)">
            <rect x="896" y="332.554" width="128" height="110.851" style="fill:rgb(177,27,27);stroke:black;stroke-width:10.31px;"/>
        </g>
        <g transform="matrix(0.848132,-0.489669,1,0.57735,-314.23,949.421)">
            <rect x="1024" y="332.554" width="130.701" height="110.851" style="fill:rgb(177,27,27);stroke:black;stroke-width:10.41px;"/>
        </g>
        <g transform="matrix(0.848132,-0.489669,1,0.57735,-314.23,949.421)">
            <rect x="1024" y="443.405" width="130.701" height="110.851" style="fill:rgb(177,27,27);stroke:black;stroke-width:10.41px;"/>
        </g>
        <g transform="matrix(0.866025,-0.5,1,0.57735,-332.554,960)">
            <rect x="896" y="443.405" width="128" height="110.851" style="fill:rgb(177,27,27);stroke:black;stroke-width:10.31px;"/>
        </g>
        <g transform="matrix(0.866025,-0.5,1,0.57735,-332.554,960)">
            <rect x="768" y="443.405" width="128" height="110.851" style="fill:rgb(177,27,27);stroke:black;stroke-width:10.31px;"/>
        </g>
        <g transform="matrix(0.866025,-0.5,1,0.57735,-332.554,960)">
            <rect x="768" y="554.256" width="128" height="110.851" style="fill:rgb(177,27,27);stroke:black;stroke-width:10.31px;"/>
        </g>
        <g transform="matrix(0.866025,-0.5,1,0.57735,-332.554,960)">
            <rect x="896" y="554.256" width="128" height="110.851" style="fill:rgb(177,27,27);stroke:black;stroke-width:10.31px;"/>
        </g>
        <g transform="matrix(0.866025,-0.5,1,0.57735,-332.554,960)">
            <rect x="1024" y="554.256" width="128" height="110.851" style="fill:rgb(177,27,27);stroke:black;stroke-width:10.31px;"/>
        </g>
    </g>
</svg>
