<?xml version="1.0" encoding="UTF-8" standalone="no"?>
<!DOCTYPE svg PUBLIC "-//W3C//DTD SVG 1.1//EN" "http://www.w3.org/Graphics/SVG/1.1/DTD/svg11.dtd">
<svg width="100%" height="100%" viewBox="0 0 2001 2001" version="1.1" xmlns="http://www.w3.org/2000/svg" xmlns:xlink="http://www.w3.org/1999/xlink" xml:space="preserve" xmlns:serif="http://www.serif.com/" style="fill-rule:evenodd;clip-rule:evenodd;stroke-linecap:round;stroke-linejoin:round;stroke-miterlimit:1.5;">
    <g transform="matrix(1,0,0,1,-5231,-122)">
        <g id="ArtBoard1" transform="matrix(1,0,0,1,5231.65,122.881)">
            <rect x="0" y="0" width="2000" height="2000" style="fill:none;"/>
            <g transform="matrix(0.992359,0,0,0.992359,7.64137,7.14137)">
                <path d="M691,788.5L691,490.359L439.641,490.359L1000,18.5L1560.36,490.359L1309,490.359L1309,788.5L1560.36,788.5L1560.36,1409.5L1309,1409.5L1309,1981.5L691,1981.5L691,1409.5L439.641,1409.5L439.641,788.5L691,788.5Z" style="fill:rgb(207,216,229);stroke:rgb(23,45,77);stroke-width:41.99px;"/>
            </g>
            <g transform="matrix(1.3112,0,0,1.3112,117.246,-66.9103)">
                <text x="286.679px" y="858px" style="font-family:'Roboto-Black', 'Roboto';font-weight:900;font-size:248.309px;fill:rgb(23,45,77);">DONE?</text>
                <text x="286.679px" y="1093.23px" style="font-family:'Roboto-Black', 'Roboto';font-weight:900;font-size:235.234px;fill:rgb(229,189,115);">GO ON!</text>
            </g>
            <g transform="matrix(0.983897,0,0,0.983897,16.1031,15.6892)">
                <path d="M1560.36,799.178C1560.36,793.009 1555.35,788 1549.18,788L450.819,788C444.65,788 439.641,793.009 439.641,799.178L439.641,1397.82C439.641,1403.99 444.65,1409 450.819,1409L1549.18,1409C1555.35,1409 1560.36,1403.99 1560.36,1397.82L1560.36,799.178Z" style="fill:none;stroke:rgb(23,45,77);stroke-width:42.35px;"/>
            </g>
        </g>
    </g>
</svg>
